<svg width="11" height="19" viewBox="0 0 11 19" fill="none" xmlns="http://www.w3.org/2000/svg">
<path d="M7.64719 9.26043L1.01445 16.0838C0.787844 16.3278 0.663137 16.6535 0.667083 16.991C0.671029 17.3285 0.803315 17.651 1.03556 17.8893C1.26781 18.1276 1.58151 18.2627 1.90938 18.2656C2.23725 18.2685 2.55317 18.139 2.78936 17.9048L10.3022 10.1741C10.5294 9.93941 10.6599 9.62365 10.6667 9.29245C10.6735 8.96125 10.5561 8.64009 10.3388 8.39574L2.79301 0.614769C2.55588 0.38579 2.24159 0.260651 1.91652 0.265777C1.59144 0.270904 1.28102 0.405894 1.05081 0.642243C0.820603 0.878591 0.688627 1.1978 0.682753 1.53245C0.676879 1.8671 0.797565 2.19101 1.01933 2.43577L7.64719 9.26043Z" fill="black"/>
</svg>
