<svg width="81" height="84" viewBox="0 0 81 84" fill="none" xmlns="http://www.w3.org/2000/svg">
<g clip-path="url(#clip0_0_734)">
<path d="M40.7358 17.4924C47.396 17.4924 53.7835 20.1433 58.493 24.8619C63.2025 29.5804 65.8483 35.9802 65.8483 42.6532V77.3266H15.6233V42.6532C15.6233 35.9802 18.2691 29.5804 22.9786 24.8619C27.6881 20.1433 34.0755 17.4924 40.7358 17.4924Z" fill="#F9C33D"/>
<path d="M42.2353 0H36.6331V11.6633H42.2353V0Z" fill="#F9C33D"/>
<path d="M15.9623 8.00809L11.6707 11.6161L19.1533 20.5507L23.4449 16.9427L15.9623 8.00809Z" fill="#F9C33D"/>
<path d="M0.971852 31.0721L-0.000976562 36.5999L11.4631 38.6252L12.4359 33.0974L0.971852 31.0721Z" fill="#F9C33D"/>
<path d="M57.5575 16.9463L61.8491 20.5543L69.3318 11.6197L65.0402 8.01169L57.5575 16.9463Z" fill="#F9C33D"/>
<path d="M68.5645 33.0984L69.5374 38.6262L81.0014 36.6009L80.0286 31.0731L68.5645 33.0984Z" fill="#F9C33D"/>
<path d="M73.1507 76.5629H6.32449C4.27471 76.5629 2.61304 78.2277 2.61304 80.2815C2.61304 82.3352 4.27471 84.0001 6.32449 84.0001H73.1507C75.2005 84.0001 76.8622 82.3352 76.8622 80.2815C76.8622 78.2277 75.2005 76.5629 73.1507 76.5629Z" fill="#FAEBC5"/>
<path d="M65.8483 42.6532C65.8483 35.9802 63.2025 29.5804 58.493 24.8619C53.7835 20.1433 47.3961 17.4924 40.7358 17.4924C38.0919 17.4907 35.4645 17.9097 32.9518 18.7337C30.4008 21.0857 28.3654 23.9431 26.9745 27.1246C25.5836 30.3062 24.8676 33.7427 24.8718 37.2161V59.3266C24.8718 62.6585 26.1929 65.8539 28.5443 68.2099C30.8958 70.5658 34.0851 71.8894 37.4105 71.8894H65.8483V42.6532Z" fill="#FAEBC5"/>
<path d="M40.7407 30.5226H40.7357C38.2566 30.5226 36.2468 32.5362 36.2468 35.0201V47.1206C36.2468 49.6045 38.2566 51.6181 40.7357 51.6181H40.7407C43.2198 51.6181 45.2296 49.6045 45.2296 47.1206V35.0201C45.2296 32.5362 43.2198 30.5226 40.7407 30.5226Z" fill="#CE281D"/>
<path d="M45.1543 61.7688C45.1543 59.3044 43.1603 57.3065 40.7006 57.3065C38.2408 57.3065 36.2468 59.3044 36.2468 61.7688C36.2468 64.2333 38.2408 66.2311 40.7006 66.2311C43.1603 66.2311 45.1543 64.2333 45.1543 61.7688Z" fill="#CE281D"/>
<path fill-rule="evenodd" clip-rule="evenodd" d="M44.3004 64.3968C44.8374 63.6596 45.1543 62.7513 45.1543 61.7688C45.1543 59.3044 43.1603 57.3065 40.7006 57.3065C40.1124 57.3065 39.5508 57.4208 39.0368 57.6283C38.4998 58.3655 38.1829 59.2738 38.1829 60.2563C38.1829 62.7207 40.1769 64.7186 42.6366 64.7186C43.2248 64.7186 43.7864 64.6043 44.3004 64.3968Z" fill="#EC3125"/>
<path fill-rule="evenodd" clip-rule="evenodd" d="M44.5679 49.472C44.9876 48.7878 45.2296 47.9825 45.2296 47.1206V35.0201C45.2296 32.5362 43.2198 30.5226 40.7407 30.5226H40.7357C40.06 30.5226 39.4192 30.6721 38.8445 30.94C38.4249 31.6242 38.1829 32.4295 38.1829 33.2914V45.3919C38.1829 47.8758 40.1926 49.8894 42.6717 49.8894H42.6767C43.3524 49.8894 43.9932 49.7399 44.5679 49.472Z" fill="#EC3125"/>
</g>
<defs>
<clipPath id="clip0_0_734">
<rect width="81" height="84" fill="white"/>
</clipPath>
</defs>
</svg>
