<svg width="111" height="104" viewBox="0 0 111 104" fill="none" xmlns="http://www.w3.org/2000/svg">
<path opacity="0.15" d="M10.087 97.335C-12.2432 97.0201 13.0776 86.3118 13.0776 86.3118C13.0776 86.3118 6.2287 82.5225 5.55189 78.1202C4.61431 72.0218 10.0242 66.993 15.8061 66.5993C21.588 66.2056 33.6135 73.9107 34.8097 65.8401C36.006 57.7696 54.3487 59.738 60.9281 65.8401C67.5076 71.9423 71.1957 73.5535 83.5571 68.6324C95.9184 63.7113 92.0309 67.8086 94.4234 70.7612C102.598 78.0444 94.6228 75.4855 94.4234 80.2097C94.2241 84.9339 109.576 81.9813 101.003 88.8708C92.4297 95.7603 90.542 88.5265 86.7615 93.0296C83.8091 96.5463 82.4608 101.666 68.3051 103.24C54.1493 104.815 47.3705 97.335 43.9811 99.894C40.5917 102.453 34.2116 102.059 31.8191 99.894C29.4266 97.7287 15.8689 106.193 13.0776 103.24C10.2863 100.288 11.682 98.5161 10.087 97.335Z" fill="black"/>
<mask id="mask0_0_770" style="mask-type:alpha" maskUnits="userSpaceOnUse" x="8" y="18" width="84" height="72">
<path fill-rule="evenodd" clip-rule="evenodd" d="M18.6371 47.6035L26.5438 26.7299C27.0455 25.4052 28.3144 24.529 29.7309 24.529H70.2541C71.6706 24.529 72.9395 25.4052 73.4412 26.7299L81.3479 47.6035H18.6371ZM17.263 47.6035H17.2629L25.3422 26.2741C26.0331 24.45 27.7804 23.2435 29.731 23.2435H70.2542C72.2048 23.2435 73.952 24.45 74.643 26.2741L82.7223 47.6035H82.722L74.6429 26.2747C73.952 24.4506 72.2047 23.244 70.2541 23.244H29.7309C27.7803 23.244 26.033 24.4506 25.3421 26.2747L17.263 47.6035ZM12.6023 48.0477C12.6444 47.5469 12.7567 47.0399 12.9469 46.5379L21.2146 24.7112C22.5553 21.1716 25.9458 18.8303 29.7309 18.8303H70.2541C74.0392 18.8303 77.4296 21.1716 78.7704 24.7112L87.0381 46.5379C87.2283 47.04 87.3406 47.5471 87.3827 48.0479C89.5708 48.943 91.1123 51.0932 91.1123 53.6035V70.6558C91.1123 73.7544 88.7633 76.3045 85.7489 76.6224V87.1711C85.7489 88.2757 84.8535 89.1711 83.7489 89.1711H73.8932C72.7886 89.1711 71.8932 88.2757 71.8932 87.1711V76.6558H28.0912L28.0912 87.2017C28.0912 88.3063 27.1958 89.2017 26.0912 89.2017H16.2355C15.1309 89.2017 14.2355 88.3063 14.2355 87.2017L14.2355 76.6224C11.2211 76.3045 8.87207 73.7544 8.87207 70.6558V53.6035C8.87207 51.093 10.4139 48.9426 12.6023 48.0477ZM80.8322 62.4889C80.8322 65.3276 78.5309 67.6289 75.6921 67.6289C72.8534 67.6289 70.5521 65.3276 70.5521 62.4889C70.5521 59.6501 72.8534 57.3489 75.6921 57.3489C78.5309 57.3489 80.8322 59.6501 80.8322 62.4889ZM32.0022 62.4891C32.0022 65.3279 29.7009 67.6291 26.8621 67.6291C24.0234 67.6291 21.7221 65.3279 21.7221 62.4891C21.7221 59.6504 24.0234 57.3491 26.8621 57.3491C29.7009 57.3491 32.0022 59.6504 32.0022 62.4891Z" fill="#65FFFF"/>
</mask>
<g mask="url(#mask0_0_770)">
<path d="M94.3249 88.3497H5.65966V8.67948L66.6973 14.3331C66.6973 14.3331 60.2723 24.742 62.1998 31.8096C64.1273 38.8771 75.6922 37.4636 78.9048 43.8882C82.1174 50.3129 84.6874 50.9554 84.6874 50.9554C84.6874 50.9554 92.9806 57.5199 94.3249 61.2354C97.2298 69.2642 94.3249 88.3497 94.3249 88.3497Z" fill="white"/>
<rect x="71.4607" y="76.4578" width="15.7433" height="16.8219" fill="#B7DEFF"/>
<rect x="12.1538" y="76.4578" width="15.7433" height="16.8219" fill="#B7DEFF"/>
</g>
<path d="M62.8205 27.3973C62.9859 23.9394 64.4208 20.2835 66.8624 17.107C69.304 13.9305 72.4652 11.6021 75.7648 10.5525C79.1188 9.48518 82.2192 9.86068 84.4945 11.6087L62.8205 27.3973ZM62.8205 27.3973L63.3199 27.4212C63.3199 27.4211 63.3199 27.4211 63.3199 27.421L62.8205 27.3973ZM107.832 33.4879C107.954 34.2983 107.995 35.119 107.953 35.9376L107.953 35.9396C107.793 39.2811 106.404 42.8396 104.015 45.9488C101.626 49.0577 98.5447 51.3148 95.3569 52.3317C92.119 53.3619 89.1991 52.9804 87.0838 51.3553L87.0837 51.3552C85.8014 50.3703 84.862 48.938 84.3787 47.1961L84.3699 47.1644L84.3571 47.1342C83.3168 44.6864 82.0734 42.7023 80.5504 41.0802L80.5503 41.0801C78.059 38.4278 74.9663 36.9507 71.377 36.7045C71.2348 36.6947 71.0924 36.6867 70.9547 36.6789C70.9338 36.6777 70.9129 36.6766 70.8922 36.6754L70.8919 36.6754C70.3234 36.6435 69.7844 36.6123 69.2705 36.4972C69.2697 36.497 69.2687 36.4967 69.2676 36.4963L69.2213 36.4816L69.1769 36.4764C68.1666 36.241 67.2178 35.7934 66.3936 35.1633L107.832 33.4879ZM104.877 28.1968C104.877 28.1969 104.877 28.1971 104.877 28.1972C104.877 28.1973 104.878 28.1973 104.878 28.1974L105.181 27.8003L104.877 28.1968ZM102.067 26.8604L102.083 26.8687L102.1 26.8686C102.089 26.8687 102.077 26.8659 102.067 26.8604ZM100.595 26.6887C100.595 26.6887 100.596 26.6887 100.596 26.6887C100.596 26.6887 100.597 26.6888 100.597 26.6888L100.632 26.19L100.595 26.6887ZM93.5153 23.9554L93.2578 24.384C93.2578 24.384 93.2578 24.384 93.2578 24.384L93.5153 23.9554ZM87.4441 16.2905L86.9689 16.4458C86.9689 16.4459 86.9689 16.4459 86.9689 16.446L87.4441 16.2905Z" stroke="#FDDA00"/>
<path fill-rule="evenodd" clip-rule="evenodd" d="M67.961 22.2578C68.114 19.0595 69.3531 15.6918 71.4703 12.6907C69.7801 13.8553 68.2116 15.3513 66.8627 17.1062C64.4211 20.2827 62.9862 23.9386 62.8208 27.3965C62.6535 30.9123 63.8171 33.8108 66.0896 35.5592C66.8627 36.1504 67.7384 36.5913 68.6713 36.8603C68.66 36.7803 68.6541 36.6986 68.6541 36.6155C68.6541 35.6577 69.4305 34.8813 70.3883 34.8813C71.346 34.8813 72.1224 35.6577 72.1224 36.6155C72.1224 36.8441 72.0782 37.0623 71.9978 37.2622C75.1809 37.6253 77.933 39.0229 80.1862 41.4217C81.6614 42.9929 82.8752 44.9243 83.8972 47.3289C84.4065 49.1646 85.4026 50.6934 86.7794 51.7509C89.0547 53.499 92.1551 53.8745 95.5091 52.8072C98.8083 51.7548 101.971 49.4296 104.412 46.2526C104.595 46.0137 104.773 45.772 104.945 45.5279C103.576 46.4713 102.126 47.1974 100.649 47.6686C97.2953 48.7358 94.1949 48.3603 91.9197 46.6123C90.5428 45.5548 89.5467 44.0259 89.0374 42.1903C88.0155 39.7856 86.8017 37.8542 85.3264 36.283C82.9201 33.7213 79.9447 32.3013 76.4831 32.0639C76.3444 32.0543 76.2055 32.0465 76.0677 32.0387L76.0044 32.0351L76.0039 32.0351H76.0038C75.4409 32.0036 74.859 31.971 74.2967 31.8446C74.2831 31.8415 74.2693 31.8374 74.2561 31.8332C74.2393 31.8312 74.2226 31.8283 74.2061 31.8244C73.1256 31.573 72.111 31.0944 71.2298 30.4206C68.9573 28.6721 67.7937 25.7736 67.961 22.2578ZM65.4751 31.4135C66.4328 31.4135 67.2092 30.6371 67.2092 29.6793C67.2092 28.7216 66.4328 27.9452 65.4751 27.9452C64.5173 27.9452 63.7409 28.7216 63.7409 29.6793C63.7409 30.6371 64.5173 31.4135 65.4751 31.4135ZM83.6835 37.4827C83.6835 38.4404 82.9071 39.2168 81.9493 39.2168C80.9916 39.2168 80.2152 38.4404 80.2152 37.4827C80.2152 36.5249 80.9916 35.7485 81.9493 35.7485C82.9071 35.7485 83.6835 36.5249 83.6835 37.4827ZM87.441 50.1992C88.3988 50.1992 89.1752 49.4228 89.1752 48.4651C89.1752 47.5073 88.3988 46.7309 87.441 46.7309C86.4833 46.7309 85.7069 47.5073 85.7069 48.4651C85.7069 49.4228 86.4833 50.1992 87.441 50.1992ZM97.8457 50.9228C97.8457 51.4815 97.3928 51.9344 96.8341 51.9344C96.2754 51.9344 95.8225 51.4815 95.8225 50.9228C95.8225 50.3642 96.2754 49.9112 96.8341 49.9112C97.3928 49.9112 97.8457 50.3642 97.8457 50.9228Z" fill="#FDDA00"/>
<path fill-rule="evenodd" clip-rule="evenodd" d="M80.1411 18.7329C81.1787 18.7329 82.0198 17.8918 82.0198 16.8542C82.0198 15.8167 81.1787 14.9756 80.1411 14.9756C79.1036 14.9756 78.2625 15.8167 78.2625 16.8542C78.2625 17.8918 79.1036 18.7329 80.1411 18.7329ZM85.1131 33.4369C86.1507 33.4369 86.9918 32.5958 86.9918 31.5582C86.9918 30.5206 86.1507 29.6795 85.1131 29.6795C84.0756 29.6795 83.2345 30.5206 83.2345 31.5582C83.2345 32.5958 84.0756 33.4369 85.1131 33.4369ZM97.3968 29.5357C97.3968 30.5732 96.5557 31.4143 95.5181 31.4143C94.4806 31.4143 93.6395 30.5732 93.6395 29.5357C93.6395 28.4981 94.4806 27.657 95.5181 27.657C96.5557 27.657 97.3968 28.4981 97.3968 29.5357ZM100.142 44.9984C101.18 44.9984 102.021 44.1573 102.021 43.1197C102.021 42.0822 101.18 41.2411 100.142 41.2411C99.1048 41.2411 98.2637 42.0822 98.2637 43.1197C98.2637 44.1573 99.1048 44.9984 100.142 44.9984Z" fill="#FDDA00"/>
<circle cx="36.8362" cy="10.8432" r="5.52765" stroke="white" stroke-width="1.5"/>
<ellipse cx="76.2142" cy="3.99487" rx="4.56556" ry="3.99487" fill="#B7DEFF"/>
<circle cx="97.9008" cy="19.4036" r="3.81556" stroke="white" stroke-width="1.5"/>
<circle cx="54.5277" cy="12.5556" r="4.56556" fill="#B7DEFF"/>
<path d="M44.6469 49.0797C44.6469 52.4479 41.9165 55.1783 38.5485 55.1783C35.1805 55.1783 32.4502 52.4479 32.4502 49.0797C32.4502 45.7115 35.1805 42.9811 38.5485 42.9811C41.9165 42.9811 44.6469 45.7115 44.6469 49.0797Z" stroke="#00579A" stroke-width="1.5"/>
<circle cx="57.3814" cy="50.7919" r="4.38626" stroke="#00579A" stroke-width="1.5"/>
<path d="M16.112 24.538C16.112 26.3291 14.6595 27.7815 12.8672 27.7815C11.0748 27.7815 9.62231 26.3291 9.62231 24.538C9.62231 22.747 11.0748 21.2946 12.8672 21.2946C14.6595 21.2946 16.112 22.747 16.112 24.538Z" stroke="white" stroke-width="1.5"/>
</svg>
